<?xml version="1.0" standalone="no"?>
<!DOCTYPE svg PUBLIC "-//W3C//DTD SVG 20010904//EN"
 "http://www.w3.org/TR/2001/REC-SVG-20010904/DTD/svg10.dtd">
<svg version="1.0" xmlns="http://www.w3.org/2000/svg"
 width="512.000000pt" height="512.000000pt" viewBox="0 0 512.000000 512.000000"
 preserveAspectRatio="xMidYMid meet">
<metadata>
Created by potrace 1.14, written by Peter Selinger 2001-2017
</metadata>
<g transform="translate(0.000000,512.000000) scale(0.100000,-0.100000)"
fill="#000000" stroke="none">
<path d="M2484 5112 c11 -18 11 -94 1 -157 -10 -61 -8 -52 -28 -99 -9 -21 -17
-40 -17 -43 0 -2 -19 -35 -43 -71 -51 -78 -137 -183 -262 -317 -82 -88 -205
-239 -205 -251 0 -4 -7 -16 -17 -26 -18 -21 -31 -42 -67 -114 -14 -28 -29 -54
-33 -58 -5 -4 -8 -11 -8 -14 0 -4 -5 -20 -12 -37 -32 -86 -35 -96 -47 -166 -3
-19 -8 -45 -11 -59 -11 -45 -13 -254 -4 -313 31 -198 137 -381 310 -537 112
-101 109 -100 92 -27 -8 34 -13 74 -11 89 3 16 1 28 -3 28 -8 0 -4 222 6 295
3 28 13 77 22 110 8 33 16 65 18 70 2 11 5 19 42 120 32 87 95 215 134 273 16
23 29 45 29 48 0 7 107 152 136 184 12 14 47 52 78 85 l56 60 -49 -100 c-71
-146 -101 -211 -101 -219 0 -4 -10 -28 -21 -54 -12 -25 -22 -51 -24 -57 -1 -5
-8 -23 -14 -40 -7 -16 -14 -37 -16 -45 -2 -8 -4 -15 -5 -15 -1 0 -3 -7 -5 -15
-1 -8 -10 -39 -18 -67 -9 -29 -13 -53 -10 -53 3 0 1 -6 -5 -12 -5 -7 -15 -47
-22 -88 -6 -41 -13 -86 -16 -100 -15 -96 -23 -270 -11 -270 6 0 6 -5 0 -12 -5
-7 -8 -22 -7 -33 3 -35 16 -169 19 -205 2 -19 8 -56 13 -82 5 -27 7 -48 4 -48
-2 0 1 -6 7 -13 6 -8 9 -16 6 -18 -2 -3 5 -43 16 -89 12 -47 23 -97 26 -112
l5 -27 -648 0 -649 0 1 -23 c1 -27 15 -146 19 -168 1 -8 6 -40 9 -70 4 -30 13
-104 21 -165 8 -60 17 -128 19 -150 2 -22 7 -67 11 -100 4 -33 8 -66 8 -72 0
-16 -12 -15 162 -18 83 -1 153 -3 157 -4 4 0 10 -27 13 -58 4 -32 13 -101 20
-153 8 -52 17 -120 20 -151 3 -31 8 -67 10 -80 3 -12 7 -45 10 -73 3 -28 7
-62 10 -76 2 -14 7 -50 9 -80 3 -30 7 -71 10 -90 6 -39 11 -74 26 -200 5 -47
12 -103 15 -125 3 -22 8 -56 10 -75 2 -19 7 -55 10 -80 4 -25 8 -63 10 -85 2
-22 7 -58 10 -80 8 -50 12 -84 20 -159 3 -33 8 -63 11 -67 2 -4 376 -8 829 -8
l825 1 1 36 c0 20 2 46 4 57 3 11 7 45 10 75 4 30 8 66 11 80 2 14 6 45 9 70
2 25 7 65 10 90 4 25 8 59 10 75 2 17 6 46 8 65 3 19 8 62 12 95 4 33 9 71 11
85 3 14 7 45 9 70 3 25 7 61 10 80 3 19 7 58 10 86 3 28 7 61 10 72 2 12 7 52
10 89 4 37 9 75 10 84 2 9 6 38 9 65 13 105 16 130 20 149 2 11 9 65 16 120
l12 100 162 0 c102 0 163 4 163 10 0 24 14 153 18 174 2 13 7 49 10 80 3 31 8
67 10 81 3 14 7 48 11 75 3 28 7 61 9 75 2 14 7 52 10 85 4 33 9 74 11 90 3
17 6 45 8 62 l4 33 -101 0 c-56 1 -383 2 -727 3 l-625 2 -18 65 c-22 75 -39
163 -51 258 -2 13 2 25 8 27 140 39 331 127 430 198 69 49 216 189 216 206 0
6 4 11 8 11 7 0 112 170 112 182 0 3 8 23 17 44 9 22 17 41 18 44 0 3 6 21 13
41 33 95 44 188 39 324 -6 142 -13 210 -27 236 -5 9 -7 19 -5 21 3 3 -2 25
-11 49 -9 24 -17 49 -18 54 -1 6 -10 27 -19 49 -9 21 -17 41 -17 45 0 4 -20
41 -44 84 -24 42 -41 77 -38 77 4 0 2 4 -4 8 -6 4 -26 30 -46 59 -67 102 -247
294 -383 410 -33 29 -70 61 -83 71 -13 11 -42 35 -64 54 -23 18 -58 47 -77 63
-19 17 -31 24 -27 17z"/>
</g>
</svg>
